<?xml version="1.0" encoding="iso-8859-1"?>
<!-- Uploaded to: SVG Repo, www.svgrepo.com, Generator: SVG Repo Mixer Tools -->
<svg fill="#000000" version="1.1" id="Layer_1" xmlns="http://www.w3.org/2000/svg" xmlns:xlink="http://www.w3.org/1999/xlink" 
	 viewBox="0 0 512 512" xml:space="preserve">
<g>
	<g>
		<path d="M0,31.67v448.66h512V31.67H0z M496.165,464.495H15.835V121.402h480.33V464.495z M496.165,105.567H15.835V47.505h480.33
			V105.567z"/>
	</g>
</g>
<g>
	<g>
		<rect x="39.588" y="68.619" width="21.113" height="15.835"/>
	</g>
</g>
<g>
	<g>
		<rect x="71.258" y="68.619" width="21.113" height="15.835"/>
	</g>
</g>
<g>
	<g>
		<rect x="451.299" y="68.619" width="21.113" height="15.835"/>
	</g>
</g>
<g>
	<g>
		<path d="M36.948,142.515v300.866h438.103V142.515H36.948z M459.216,427.546H52.784V158.351h406.433V427.546z"/>
	</g>
</g>
<g>
	<g>
		<path d="M73.897,179.464v184.742h216.412V179.464H73.897z M89.732,348.371V204.4l170.966,143.971H89.732z M274.474,339.27
			L103.508,195.299h170.966V339.27z"/>
	</g>
</g>
<g>
	<g>
		<rect x="314.062" y="179.464" width="89.732" height="15.835"/>
	</g>
</g>
<g>
	<g>
		<rect x="314.062" y="221.691" width="126.68" height="15.835"/>
	</g>
</g>
<g>
	<g>
		<rect x="314.062" y="263.918" width="126.68" height="15.835"/>
	</g>
</g>
<g>
	<g>
		<rect x="314.062" y="306.144" width="126.68" height="15.835"/>
	</g>
</g>
<g>
	<g>
		<rect x="351.01" y="348.371" width="89.732" height="15.835"/>
	</g>
</g>
<g>
	<g>
		<rect x="71.258" y="390.598" width="327.258" height="15.835"/>
	</g>
</g>
<g>
	<g>
		<rect x="419.629" y="390.598" width="21.113" height="15.835"/>
	</g>
</g>
<g>
	<g>
		<rect x="419.629" y="179.464" width="21.113" height="15.835"/>
	</g>
</g>
<g>
	<g>
		<rect x="234.887" y="216.412" width="21.113" height="15.835"/>
	</g>
</g>
<g>
	<g>
		<rect x="108.206" y="311.423" width="21.113" height="15.835"/>
	</g>
</g>
</svg>